<svg xmlns="http://www.w3.org/2000/svg" width="44.665" height="44.725" viewBox="0 0 44.665 44.725"><g transform="translate(-240.634 -343.398)"><circle cx="21.832" cy="21.832" r="21.832" transform="translate(241.134 343.898)" fill="#dedada" stroke="#bab9b9" stroke-miterlimit="10" stroke-width="1"/><g transform="translate(252.425 348.915)"><path d="M273.9,380.1a72.689,72.689,0,0,1-.071-9.335c.668-4.923,2.035-14.546-2.84-13.852-7.232,1.029-3.449,8.706-3.449,8.706s3,2.92-3.755,3.755c-1.491.184-1.252-3.755-1.252-3.755-1.5-3.254-2.482-11.493,7.955-12.962,7.51-1.057,9.61,2.73,7.878,17.356a70.112,70.112,0,0,0-.246,10.306" transform="translate(-260.945 -352.491)" fill="#fff" stroke="#848383" stroke-miterlimit="10" stroke-width="1"/><path d="M264.158,356.423a9.275,9.275,0,0,0-.953,1c-.626.768-2.133.381-2.648,2.057-.375,1.223.643,2.775.67,3.915a9.858,9.858,0,0,0,.833,3.8s4.723-.577,4.459-1.436c-.524-1.705-.966-4.522,1.06-6.139C267.579,359.623,265.184,355.49,264.158,356.423Z" transform="translate(-260.474 -354.07)" fill="#535453"/></g><g transform="translate(241.766 371.007)"><path d="M242.216,390.33a21.833,21.833,0,0,0,42.4,0Z" transform="translate(-242.216 -390.33)" fill="#707171" stroke="#bab9b9" stroke-miterlimit="10" stroke-width="1"/><g transform="translate(11.704 2.39)"><rect width="3.727" height="3.352" transform="translate(9.647)" fill="#b2b1b1"/><rect width="3.727" height="3.352" transform="translate(0 6.786)" fill="#b2b1b1"/><rect width="3.727" height="3.352" transform="translate(14.099 6.786)" fill="#b2b1b1"/><rect width="3.727" height="3.352" rx="1.676" transform="translate(3.147)" fill="#f7f8f8"/><rect width="3.727" height="3.352" rx="1.676" transform="translate(7.049 6.957)" fill="#f7f8f8"/><path d="M279.553,404.739V402.9h-14.1v1.835" transform="translate(-263.59 -397.953)" fill="none" stroke="#bab9b9" stroke-miterlimit="10" stroke-width="1"/><path d="M277.528,404.158v-3.063" transform="translate(-268.615 -397.2)" fill="none" stroke="#bab9b9" stroke-miterlimit="10" stroke-width="1"/></g></g></g></svg>