<svg xmlns="http://www.w3.org/2000/svg" width="42.3" height="29.954" viewBox="0 0 42.3 29.954"><g transform="translate(-264.873 -705.434)"><g transform="translate(264.873 705.434)"><path d="M264.873,729.335a3.044,3.044,0,0,1,1.34-1.068,17.815,17.815,0,0,1,5.965-1.951c1.138-.183,2.3-.293,3.45-.435q.287-.036.574-.067c.2-.023.3-.1.324-.244.085-.541.173-1.081.259-1.622a12.773,12.773,0,0,1,1.443-4.658c1.4-2.377,3.878-3.909,7.317-4.688a31.5,31.5,0,0,1,4.032-.612c1.181-.11,2.366-.2,3.548-.309a1.027,1.027,0,0,0,.348-.067c.1-.049.207-.137.219-.216a13.811,13.811,0,0,1,1.3-4.31,9.526,9.526,0,0,1,2.883-3.331,1.518,1.518,0,0,1,.723-.311c.669-.094,1.325.379,1.153.848a1.2,1.2,0,0,1-.22.361c-.082.1-.079.168.018.247.186.148.363.3.559.445.995.722,2,1.439,2.99,2.161.2.149.387.315.588.468.118.09.1.171,0,.256a3.53,3.53,0,0,1-1.171.659.456.456,0,0,1-.418-.035c-.353-.224-.713-.444-1.056-.676-.9-.612-1.8-1.234-2.7-1.843-.339-.227-.44-.212-.649.079-.186.258-.335.528-.516.788-.115.167-.068.3.1.428.391.292.774.59,1.165.881.482.357.97.71,1.456,1.065.054.04.1.082.178.142a1.533,1.533,0,0,1-.264.112c-.588.129-1.178.255-1.771.37a.474.474,0,0,1-.285-.069c-.383-.238-.754-.486-1.13-.731-.089-.059-.182-.114-.306-.191a2.071,2.071,0,0,0-.117.291c-.131.587-.26,1.175-.38,1.763-.041.2-.013.228.262.2.739-.071,1.477-.145,2.21-.245a22.584,22.584,0,0,0,3.412-.665,14.407,14.407,0,0,0,3.573-1.6c.09-.058.191-.107.289-.158a1.221,1.221,0,0,1,1.332.115.542.542,0,0,1,.007.93,9.3,9.3,0,0,1-1.128.729,18.186,18.186,0,0,1-6.126,1.955c-1.155.177-2.328.3-3.495.432-.574.068-.583.059-.656.474-.147.828-.273,1.657-.432,2.483a10.313,10.313,0,0,1-1.749,4.344A10.7,10.7,0,0,1,287.34,726a25.217,25.217,0,0,1-4.309.762c-1.364.134-2.733.247-4.1.367-.46.041-.533.093-.593.423-.084.459-.147.921-.264,1.375a10.123,10.123,0,0,1-3.686,5.979,2.041,2.041,0,0,1-.97.479h-.3a.36.36,0,0,0-.056-.023c-.757-.159-1.019-.687-.566-1.141a2.263,2.263,0,0,1,.187-.167,9.1,9.1,0,0,0,2.366-2.729,10.006,10.006,0,0,0,.87-2.369c.126-.479.207-.964.31-1.446.03-.141-.056-.18-.243-.162-.484.047-.97.081-1.453.131-.287.03-.57.078-.9.124a1.561,1.561,0,0,0,.161.177c.155.126.322.247.477.373s.317.234.262.4c-.148.444-.317.884-.484,1.324-.033.088-.127.108-.231.05a4.4,4.4,0,0,1-.379-.226q-1.127-.768-2.246-1.542a.348.348,0,0,0-.343-.049c-.528.17-1.06.335-1.588.5a2.284,2.284,0,0,0-.22.1c.084.085.149.163.231.231.165.134.334.266.51.394q1.538,1.1,3.082,2.2c.114.08.13.138.038.23-.295.294-.573.6-.875.887-.179.171-.2.17-.418.029q-.806-.529-1.6-1.07-1.365-.934-2.719-1.877a.258.258,0,0,0-.343,0,3.332,3.332,0,0,1-.369.234,1.2,1.2,0,0,1-1.674-.362c-.006-.013-.024-.023-.037-.035Zm16.524-9.02c.111.059.2.1.278.15.421.278.848.551,1.256.838q2.131,1.5,4.249,3a.229.229,0,0,0,.27.054c.447-.193.9-.374,1.351-.567a3.583,3.583,0,0,0,.381-.222c-.064-.053-.1-.09-.146-.122-.674-.5-1.346-.992-2.023-1.484q-2.071-1.5-4.151-3c-.145-.1-.151-.185-.006-.279.347-.228.7-.456,1.041-.685a.392.392,0,0,1,.5.019c.832.571,1.673,1.135,2.5,1.7q1.868,1.28,3.73,2.565c.05.034.107.061.21.12.307-.4.6-.789.891-1.17.1-.132.071-.219-.083-.328q-2.473-1.759-4.929-3.532c-.145-.1-.267-.223-.409-.342a.824.824,0,0,1,.146-.069c.621-.137,1.245-.268,1.865-.407a.374.374,0,0,1,.335.077q1.777,1.248,3.563,2.491c.109.076.229.144.361.227a.744.744,0,0,0,.042-.093c.132-.489.253-.979.4-1.467a.289.289,0,0,0-.138-.344q-.678-.513-1.346-1.032c-.088-.068-.164-.144-.269-.237l.428-.048c.46-.051.923-.095,1.381-.155.088-.011.216-.076.229-.127a5.574,5.574,0,0,0,.095-.621c-.339,0-.629-.019-.912,0-.885.067-1.769.141-2.651.229a32.508,32.508,0,0,0-3.535.517,9.943,9.943,0,0,0-5.269,2.7,6.9,6.9,0,0,0-1.693,3.218c-.242.96-.409,1.929-.6,2.9-.052.269-.06.543-.088.821h.769c.195,0,.306-.067.337-.2.059-.256.122-.511.176-.767.063-.294.119-.588.187-.927.2.12.368.208.517.307q.9.6,1.8,1.211a.485.485,0,0,0,.384.084c.643-.1,1.29-.192,1.935-.288.078-.012.154-.034.265-.059-.159-.131-.281-.244-.42-.345-.943-.687-1.891-1.37-2.833-2.056-.306-.223-.6-.455-.9-.681-.151-.115-.2-.234-.11-.388.145-.255.263-.516.4-.772C281.226,720.589,281.31,720.461,281.4,720.314Z" transform="translate(-264.873 -705.434)" fill="#686868"/></g></g></svg>